<svg fill="#ffffff" xmlns="http://www.w3.org/2000/svg" xmlns:xlink="http://www.w3.org/1999/xlink" xml:space="preserve" version="1.0" viewBox="0 0 847 1058.75" fill-rule="evenodd" clip-rule="evenodd">
    <path d="M31 103c24,-24 48,-48 72,-72 107,107 214,213 320,320 107,-107 214,-213 320,-320 24,24 48,48 72,72 -106,107 -213,214 -319,320 106,107 213,214 319,320 -24,24 -48,48 -72,72 -106,-106 -213,-213 -320,-319 -106,106 -213,213 -320,319 -24,-24 -48,-48 -72,-72 107,-106 214,-213 320,-320 -106,-106 -213,-213 -320,-320z"/>
</svg>