<svg viewBox="0 0 76 75" version="1.0" xmlns="http://www.w3.org/2000/svg" xmlns:xlink="http://www.w3.org/1999/xlink" fill="#ffffff">
    <path d="M 19.6731 48.7146C 31.5731 63.1146 60.5731 76.9146 67.5731 73.8146C 74.5731 70.7146 76.0731 64.0146 75.7731 60.9146C 75.4731 57.8146 59.5731 48.3146 55.5731 46.5146C 51.5731 44.7146 46.9731 50.5146 44.7731 53.0146C 42.4731 55.4146 33.6731 48.1146 29.8731 44.4146C 29.8731 44.4146 19.8731 33.2146 22.1731 30.8146C 24.4731 28.4146 30.1731 23.6146 28.1731 19.7146C 26.1731 15.8146 16.0731 0.214611 12.8731 0.0146111C 9.77306 -0.185389 3.17306 1.61461 0.373055 8.71461C -2.42694 15.8146 10.9731 42.9146 25.8731 54.2146"/>
</svg>