<svg version="1.0" xmlns="http://www.w3.org/2000/svg" xmlns:xlink="http://www.w3.org/1999/xlink"
	 viewBox="120.2 209.5 291 47.2" enable-background="new 120.2 209.5 291 47.2" xml:space="preserve">
	<path d="M156.3,210.9v7.9H143v36.7h-9.4v-36.7h-13.4v-7.9H156.3z"/>
	<path d="M161.7,255.5v-44.6h9.3v17h17.3v-17h9.3v44.6h-9.3v-19.9H171v19.9H161.7z"/>
	<path d="M239.4,218.8h-23.6v9.5h21.7v7.7h-21.7v11.5h24.7v8h-33.8v-44.6h32.7L239.4,218.8L239.4,218.8z"/>
	<path d="M273.5,255.5h-9.3v-44.6h9.3V255.5z"/>
	<path d="M286.5,215.5c3.6-3.7,8.2-5.5,13.7-5.5c7.4,0,12.9,2.5,16.3,7.4c1.9,2.8,2.9,5.5,3.1,8.3h-9.3c-0.6-2.1-1.4-3.8-2.3-4.8
		c-1.7-1.9-4.1-2.9-7.4-2.9s-5.9,1.4-7.9,4.1c-1.9,2.7-2.9,6.6-2.9,11.6s1,8.7,3,11.2c2,2.5,4.6,3.7,7.7,3.7c3.2,0,5.6-1.1,7.3-3.2
		c0.9-1.2,1.7-2.9,2.3-5.2h9.3c-0.8,4.9-2.8,8.8-6.1,11.9c-3.3,3-7.5,4.6-12.6,4.6c-6.3,0-11.3-2.1-15-6.2c-3.6-4.1-5.4-9.8-5.4-17
		C280.3,225.8,282.3,219.8,286.5,215.5z"/>
	<path d="M361.3,251.5c-3.4,3.5-8.2,5.2-14.6,5.2s-11.2-1.7-14.6-5.2c-4.5-4.3-6.8-10.4-6.8-18.4c0-8.2,2.3-14.3,6.8-18.4
		c3.4-3.5,8.2-5.2,14.6-5.2s11.2,1.7,14.6,5.2c4.5,4.1,6.7,10.2,6.7,18.4C368.1,241.1,365.8,247.3,361.3,251.5z M355.5,244.7
		c2.2-2.7,3.3-6.6,3.3-11.6s-1.1-8.9-3.3-11.6c-2.2-2.7-5.1-4.1-8.8-4.1c-3.7,0-6.6,1.4-8.8,4.1c-2.2,2.7-3.3,6.6-3.3,11.6
		s1.1,8.9,3.3,11.6c2.2,2.7,5.1,4.1,8.8,4.1S353.3,247.5,355.5,244.7z"/>
	<path d="M375,210.9h9.8l17.7,31.1v-31.1h8.7v44.6h-9.3l-18.2-31.6v31.6H375V210.9z"/>
</svg>
